<?xml version="1.0" standalone="no"?>
<!DOCTYPE svg PUBLIC "-//W3C//DTD SVG 20010904//EN"
 "http://www.w3.org/TR/2001/REC-SVG-20010904/DTD/svg10.dtd">
<svg version="1.0" xmlns="http://www.w3.org/2000/svg"
 width="128.000000pt" height="128.000000pt" viewBox="0 0 128.000000 128.000000"
 preserveAspectRatio="xMidYMid meet">
<metadata>
Created by potrace 1.11, written by Peter Selinger 2001-2013
</metadata>
<g transform="translate(0.000000,128.000000) scale(0.100000,-0.100000)"
fill="#000000" stroke="none">
<path d="M393 1090 c-37 -15 -56 -55 -54 -115 1 -49 12 -118 27 -166 3 -13 -4
-18 -33 -24 -58 -10 -177 -71 -191 -97 -24 -45 -22 -67 9 -103 17 -19 39 -37
50 -40 10 -4 19 -15 19 -26 0 -28 43 -46 76 -31 24 12 74 7 74 -7 0 -3 -5 -22
-10 -41 -9 -28 -22 -106 -22 -130 -1 -54 5 -75 31 -100 22 -23 35 -28 61 -25
43 6 108 45 164 100 l47 45 46 -46 c143 -140 256 -130 254 23 0 26 5 61 11 76
13 33 -2 77 -27 77 -32 0 -14 28 23 35 57 10 176 71 190 97 23 43 22 67 -6
100 -29 34 -124 82 -186 93 -34 7 -37 10 -31 34 3 14 14 31 23 38 49 35 55 60
23 90 -10 10 -19 33 -19 50 -1 42 -29 90 -57 97 -49 12 -140 -35 -211 -111
l-32 -34 -48 46 c-50 49 -139 105 -164 104 -8 0 -25 -4 -37 -9z m107 -46 c42
-26 120 -99 120 -111 -1 -16 -85 -116 -100 -118 -132 -18 -129 -18 -136 12 -3
15 -10 44 -15 63 -5 19 -9 59 -9 88 0 43 5 58 25 78 28 28 57 25 115 -12z
m402 7 c24 -31 23 -82 -2 -104 -23 -19 -26 -51 -7 -69 11 -9 11 -20 4 -45
l-10 -33 -56 7 c-31 3 -63 7 -71 7 -13 1 -100 106 -100 121 0 15 102 101 143
120 57 27 74 26 99 -4z m52 -126 c8 -22 -4 -45 -24 -45 -22 0 -34 28 -19 46
15 18 35 18 43 -1z m-274 -60 l31 -45 -71 0 c-54 0 -69 3 -64 13 19 31 57 77
65 77 4 0 22 -20 39 -45z m55 -81 c7 -8 29 -43 49 -79 l37 -65 -37 -65 c-52
-95 -55 -96 -138 -94 -39 1 -78 4 -87 6 -9 3 -35 38 -58 79 l-43 74 47 80 46
79 86 -1 c55 -1 90 -6 98 -14z m-237 -32 c-56 -94 -52 -92 -75 -31 l-20 54 26
6 c14 4 41 7 59 8 l33 1 -23 -38z m372 21 c4 -5 -3 -30 -15 -57 l-21 -49 -24
39 c-13 21 -31 50 -39 63 l-15 24 53 -6 c30 -4 58 -10 61 -14z m-479 -31 c6
-15 17 -40 25 -56 19 -40 18 -55 -12 -121 -22 -48 -29 -56 -48 -51 -11 3 -24
6 -27 6 -4 0 -10 11 -13 25 -8 30 -45 42 -76 25 -19 -10 -27 -9 -49 7 -39 30
-53 63 -37 88 19 29 55 53 117 78 81 33 107 33 120 -1z m580 14 c132 -40 189
-98 147 -152 -24 -29 -122 -78 -180 -89 -35 -7 -38 -5 -51 27 -40 97 -42 107
-24 141 9 18 21 44 26 60 12 31 19 32 82 13z m-473 -228 l23 -38 -33 1 c-18 1
-45 4 -59 8 l-26 6 20 54 c23 61 19 63 75 -31z m361 25 l20 -52 -43 -6 c-76
-12 -79 -7 -39 58 19 32 37 57 38 55 2 -2 13 -26 24 -55z m-570 -7 c13 -15 5
-46 -13 -46 -24 0 -38 18 -31 39 7 24 27 27 44 7z m230 -81 c15 -2 101 -103
101 -119 0 -18 -97 -99 -147 -122 -57 -27 -82 -23 -103 17 -12 22 -11 118 1
159 4 14 10 37 13 52 6 27 7 28 64 21 31 -3 63 -7 71 -8z m371 10 c0 -3 -7
-17 -16 -30 -22 -33 -11 -73 21 -81 22 -6 25 -11 25 -56 0 -56 -11 -83 -41
-98 -16 -9 -31 -6 -72 13 -49 24 -147 106 -147 124 0 4 20 33 44 63 39 51 47
56 87 58 24 2 45 5 48 8 6 6 51 5 51 -1z m-211 -60 c-18 -25 -35 -45 -38 -45
-6 0 -50 53 -65 78 -5 9 10 12 64 12 l71 0 -32 -45z m256 4 c7 -21 -7 -39 -31
-39 -15 0 -25 26 -18 45 9 22 42 18 49 -6z"/>
<path d="M585 695 c-16 -15 -25 -36 -25 -55 0 -19 9 -40 25 -55 49 -50 135
-15 135 55 0 19 -9 40 -25 55 -15 16 -36 25 -55 25 -19 0 -40 -9 -55 -25z m95
-15 c11 -11 20 -29 20 -40 0 -26 -34 -60 -60 -60 -11 0 -29 9 -40 20 -11 11
-20 29 -20 40 0 11 9 29 20 40 11 11 29 20 40 20 11 0 29 -9 40 -20z"/>
</g>
</svg>
