<?xml version="1.0" standalone="no"?>
<!DOCTYPE svg PUBLIC "-//W3C//DTD SVG 20010904//EN"
 "http://www.w3.org/TR/2001/REC-SVG-20010904/DTD/svg10.dtd">
<svg version="1.0" xmlns="http://www.w3.org/2000/svg"
 width="225.000000pt" height="225.000000pt" viewBox="0 0 225.000000 225.000000"
 preserveAspectRatio="xMidYMid meet">
<metadata>
Created by potrace 1.11, written by Peter Selinger 2001-2013
</metadata>
<g transform="translate(0.000000,225.000000) scale(0.100000,-0.100000)"
fill="#000000" stroke="none">
<path d="M379 2051 l-29 -29 0 -517 0 -517 29 -29 c29 -28 32 -29 130 -29 89
0 101 -2 111 -20 10 -19 5 -19 -235 -22 l-245 -3 -32 -33 -33 -32 0 -291 0
-291 37 -34 38 -34 975 0 975 0 38 34 37 34 0 291 0 291 -33 32 -32 33 -245 3
c-240 3 -245 3 -235 22 10 18 22 20 111 20 98 0 101 1 130 29 l29 29 0 517 0
517 -29 29 -29 29 -717 0 -717 0 -29 -29z m1449 -43 c9 -9 12 -134 12 -499 0
-430 -2 -489 -16 -503 -14 -14 -91 -16 -699 -16 -608 0 -685 2 -699 16 -14 14
-16 73 -16 503 0 365 3 490 12 499 17 17 1389 17 1406 0z m-348 -1098 c11 -20
8 -20 -355 -20 -363 0 -366 0 -355 20 10 19 21 20 355 20 334 0 345 -1 355
-20z m615 -105 l25 -24 0 -251 0 -251 -25 -24 -24 -25 -946 0 -946 0 -24 25
-25 24 0 251 0 251 25 24 24 25 946 0 946 0 24 -25z"/>
<path d="M522 1938 c-16 -16 -17 -829 -2 -859 10 -18 28 -19 605 -19 577 0
595 1 605 19 15 30 14 843 -2 859 -17 17 -1189 17 -1206 0z m1146 -428 c2
-334 1 -366 -15 -377 -22 -17 -1024 -19 -1054 -3 -18 10 -19 25 -19 374 0 199
3 366 7 369 3 4 248 6 542 5 l536 -3 3 -365z"/>
<path d="M626 1844 c-14 -13 -16 -58 -16 -338 0 -237 3 -325 12 -334 9 -9 120
-12 440 -12 412 0 428 1 438 19 6 12 10 135 10 330 0 298 -1 312 -20 331 -19
19 -33 20 -434 20 -364 0 -417 -2 -430 -16z"/>
<path d="M1560 1785 c0 -32 2 -35 30 -35 28 0 30 3 30 35 0 32 -2 35 -30 35
-28 0 -30 -3 -30 -35z"/>
<path d="M1564 1406 c-10 -26 4 -48 28 -44 17 2 23 10 23 28 0 18 -6 26 -23
28 -13 2 -25 -3 -28 -12z"/>
<path d="M1564 1306 c-10 -26 4 -48 28 -44 17 2 23 10 23 28 0 18 -6 26 -23
28 -13 2 -25 -3 -28 -12z"/>
<path d="M1011 734 c-19 -25 -21 -40 -21 -204 0 -164 2 -179 21 -204 l20 -26
490 0 c476 0 490 1 509 20 19 19 20 33 20 210 0 177 -1 191 -20 210 -19 19
-33 20 -509 20 l-490 0 -20 -26z m993 -20 c24 -23 24 -345 0 -368 -14 -14 -71
-16 -483 -16 -350 0 -470 3 -479 12 -8 8 -12 65 -12 190 0 158 2 178 18 187
11 7 184 11 479 11 407 0 463 -2 477 -16z"/>
<path d="M1210 585 c0 -24 -2 -25 -75 -25 l-75 0 0 -30 0 -30 75 0 c73 0 75
-1 75 -25 0 -24 2 -25 65 -25 63 0 65 1 65 25 0 24 2 25 75 25 l75 0 0 30 0
30 -75 0 c-73 0 -75 1 -75 25 0 24 -2 25 -65 25 -63 0 -65 -1 -65 -25z"/>
<path d="M1707 604 c-4 -4 -7 -16 -7 -26 0 -16 -9 -18 -70 -18 l-70 0 0 -30 0
-30 69 0 c65 0 70 -2 73 -22 3 -21 8 -23 68 -23 59 0 65 2 68 22 3 20 10 22
75 25 69 3 72 4 72 28 0 24 -3 25 -72 28 -65 3 -72 5 -75 25 -3 20 -10 22 -63
25 -34 2 -64 0 -68 -4z"/>
<path d="M1115 440 c-4 -6 -3 -16 3 -22 6 -6 12 -6 17 2 4 6 3 16 -3 22 -6 6
-12 6 -17 -2z"/>
<path d="M1615 440 c-4 -6 -3 -16 3 -22 6 -6 12 -6 17 2 4 6 3 16 -3 22 -6 6
-12 6 -17 -2z"/>
<path d="M234 517 c-10 -28 1 -210 14 -215 9 -3 12 24 12 112 0 73 -4 116 -10
116 -6 0 -13 -6 -16 -13z"/>
<path d="M300 416 c0 -98 2 -116 15 -116 13 0 15 17 13 112 -2 78 -7 113 -15
116 -10 3 -13 -24 -13 -112z"/>
<path d="M365 508 c-3 -13 -5 -63 -3 -113 2 -72 6 -90 18 -90 12 0 15 19 15
109 0 77 -4 111 -12 113 -7 3 -15 -6 -18 -19z"/>
<path d="M437 523 c-4 -3 -7 -55 -7 -115 0 -89 3 -108 15 -108 12 0 15 19 15
115 0 105 -5 127 -23 108z"/>
<path d="M500 416 c0 -98 2 -116 15 -116 13 0 15 17 13 112 -2 78 -7 113 -15
116 -10 3 -13 -24 -13 -112z"/>
<path d="M564 517 c-10 -28 1 -210 14 -215 9 -3 12 24 12 112 0 73 -4 116 -10
116 -6 0 -13 -6 -16 -13z"/>
<path d="M636 523 c-3 -3 -6 -55 -6 -115 0 -89 3 -108 15 -108 12 0 15 19 15
109 0 100 -6 131 -24 114z"/>
<path d="M700 415 c0 -89 3 -116 13 -112 8 2 12 34 12 112 0 78 -4 110 -12
113 -10 3 -13 -24 -13 -113z"/>
<path d="M764 517 c-10 -28 1 -210 14 -215 9 -3 12 24 12 112 0 73 -4 116 -10
116 -6 0 -13 -6 -16 -13z"/>
<path d="M830 416 c0 -98 2 -116 15 -116 13 0 15 17 13 112 -2 78 -7 113 -15
116 -10 3 -13 -24 -13 -112z"/>
</g>
</svg>
